#N canvas 665 166 914 910 12;
#X obj 124 22 netreceive -b -u 15000;
#X obj 124 47 oscparse;
#X obj 124 72 list trim;
#X obj 124 97 route left right;
#X obj 124 130 unpack 0 0 0;
#X obj 124 164 clip 0 1;
#X obj 249 158 clip 0 1;
#X obj 124 189 * 88;
#X obj 124 214 + 21;
#X obj 123 265 int;
#X obj 123 290 makenote 64 100;
#X obj 190 367 noteout 1;
#X obj 123 240 speedlim 50;
#X obj 249 189 * 88;
#X obj 249 214 + 21;
#X obj 248 265 int;
#X obj 248 290 makenote 64 100;
#X obj 248 240 speedlim 50;
#X obj 335 359 print right;
#X obj 249 131 unpack 0 0 0;
#X connect 0 0 1 0;
#X connect 1 0 2 0;
#X connect 2 0 3 0;
#X connect 3 0 4 0;
#X connect 3 1 19 0;
#X connect 4 0 5 0;
#X connect 5 0 7 0;
#X connect 6 0 13 0;
#X connect 7 0 8 0;
#X connect 8 0 12 0;
#X connect 9 0 10 0;
#X connect 10 0 11 0;
#X connect 10 1 11 1;
#X connect 12 0 9 0;
#X connect 13 0 14 0;
#X connect 14 0 17 0;
#X connect 15 0 16 0;
#X connect 15 0 18 0;
#X connect 16 0 11 0;
#X connect 16 1 11 1;
#X connect 17 0 15 0;
#X connect 19 0 6 0;
